<svg width="28" height="28" viewBox="0 0 28 28" fill="none" xmlns="http://www.w3.org/2000/svg">
<path d="M6.6814 -0.00118446L6.72845 -0.00244141L6.7742 -0.0012331C6.79664 6.0509e-05 6.81912 0.00239283 6.84158 0.00579667L6.85766 0.00960279C6.94307 0.0233245 7.02795 0.0538271 7.10884 0.101754L7.16071 0.135294L12.2311 3.70056L17.2981 0.13864C17.7658 -0.190152 18.3995 0.105375 18.4725 0.647715L18.4794 0.752205V11.3847C18.4794 11.5941 18.392 11.7921 18.2413 11.9329L18.1607 11.9983L12.6607 15.8647C12.3938 16.0523 12.0729 16.0366 11.8329 15.8878L6.72805 12.2966L1.65837 15.8613C1.19066 16.1901 0.556917 15.8946 0.483978 15.3523L0.477051 15.2478V4.61523C0.477051 4.40591 0.564403 4.20783 0.715171 4.06706L0.795729 4.00167L6.29573 0.135294C6.35973 0.0903015 6.42684 0.057 6.4952 0.0344217L6.61767 0.00641608L6.6814 -0.00118446ZM16.9794 2.19621L12.9794 5.00812V13.8071L16.9794 10.9952V2.19621ZM5.97705 2.19287L1.97705 5.00478V13.8038L5.97705 10.9918V2.19287ZM7.47939 2.19287V10.9918L11.4794 13.8038V5.00478L7.47939 2.19287Z" fill="white"/>
</svg>
