<svg width="24" height="24" viewBox="0 0 24 24" fill="none" xmlns="http://www.w3.org/2000/svg">
<path d="M18.2283 3C20.0232 3 21.4783 4.45507 21.4783 6.25V17.75C21.4783 19.5449 20.0232 21 18.2283 21H6.72827C4.93335 21 3.47827 19.5449 3.47827 17.75V6.25C3.47827 4.45507 4.93335 3 6.72827 3H18.2283ZM19.9783 8.5H4.97827V17.75C4.97827 18.7165 5.76177 19.5 6.72827 19.5H18.2283C19.1948 19.5 19.9783 18.7165 19.9783 17.75V8.5ZM8.22827 14.5C8.91863 14.5 9.47827 15.0596 9.47827 15.75C9.47827 16.4404 8.91863 17 8.22827 17C7.53792 17 6.97827 16.4404 6.97827 15.75C6.97827 15.0596 7.53792 14.5 8.22827 14.5ZM12.4783 14.5C13.1686 14.5 13.7283 15.0596 13.7283 15.75C13.7283 16.4404 13.1686 17 12.4783 17C11.7879 17 11.2283 16.4404 11.2283 15.75C11.2283 15.0596 11.7879 14.5 12.4783 14.5ZM8.22827 10.5C8.91863 10.5 9.47827 11.0596 9.47827 11.75C9.47827 12.4404 8.91863 13 8.22827 13C7.53792 13 6.97827 12.4404 6.97827 11.75C6.97827 11.0596 7.53792 10.5 8.22827 10.5ZM12.4783 10.5C13.1686 10.5 13.7283 11.0596 13.7283 11.75C13.7283 12.4404 13.1686 13 12.4783 13C11.7879 13 11.2283 12.4404 11.2283 11.75C11.2283 11.0596 11.7879 10.5 12.4783 10.5ZM16.7283 10.5C17.4186 10.5 17.9783 11.0596 17.9783 11.75C17.9783 12.4404 17.4186 13 16.7283 13C16.0379 13 15.4783 12.4404 15.4783 11.75C15.4783 11.0596 16.0379 10.5 16.7283 10.5ZM18.2283 4.5H6.72827C5.76177 4.5 4.97827 5.2835 4.97827 6.25V7H19.9783V6.25C19.9783 5.2835 19.1948 4.5 18.2283 4.5Z" fill="white"/>
</svg>
