<svg width="28" height="28" viewBox="0 0 28 28" fill="none" xmlns="http://www.w3.org/2000/svg">
<path d="M11.6814 5.99882L11.7284 5.99756L11.7742 5.99877C11.7966 6.00006 11.8191 6.00239 11.8416 6.0058L11.8577 6.0096C11.9431 6.02332 12.0279 6.05383 12.1088 6.10175L12.1607 6.13529L17.2311 9.70056L22.2981 6.13864C22.7658 5.80985 23.3995 6.10537 23.4725 6.64772L23.4794 6.7522V17.3847C23.4794 17.5941 23.392 17.7921 23.2413 17.9329L23.1607 17.9983L17.6607 21.8647C17.3938 22.0523 17.0729 22.0366 16.8329 21.8878L11.7281 18.2966L6.65837 21.8613C6.19066 22.1901 5.55692 21.8946 5.48398 21.3523L5.47705 21.2478V10.6152C5.47705 10.4059 5.5644 10.2078 5.71517 10.0671L5.79573 10.0017L11.2957 6.13529C11.3597 6.0903 11.4268 6.057 11.4952 6.03442L11.6177 6.00642L11.6814 5.99882ZM21.9794 8.19621L17.9794 11.0081V19.8071L21.9794 16.9952V8.19621ZM10.9771 8.19287L6.97705 11.0048V19.8038L10.9771 16.9918V8.19287ZM12.4794 8.19287V16.9918L16.4794 19.8038V11.0048L12.4794 8.19287Z" fill="black"/>
</svg>
