<svg width="18" height="18" viewBox="0 0 18 18" fill="none" xmlns="http://www.w3.org/2000/svg">
<path d="M1.5 7C1.5 3.96243 3.96243 1.5 7 1.5C10.0376 1.5 12.5 3.96243 12.5 7C12.5 10.0376 10.0376 12.5 7 12.5C3.96243 12.5 1.5 10.0376 1.5 7ZM7 0C3.13401 0 0 3.13401 0 7C0 10.866 3.13401 14 7 14C8.66283 14 10.1902 13.4202 11.3911 12.4518L16.7197 17.7803C17.0126 18.0732 17.4874 18.0732 17.7803 17.7803C18.0732 17.4874 18.0732 17.0126 17.7803 16.7197L12.4518 11.3911C13.4202 10.1902 14 8.66283 14 7C14 3.13401 10.866 0 7 0Z" fill="#8625D2"/>
</svg>
