<svg width="27" height="24" viewBox="0 0 27 24" fill="none" xmlns="http://www.w3.org/2000/svg">
<path d="M2.25366 7C2.25366 3.96243 4.7161 1.5 7.75366 1.5C10.7912 1.5 13.2537 3.96243 13.2537 7C13.2537 10.0376 10.7912 12.5 7.75366 12.5C4.7161 12.5 2.25366 10.0376 2.25366 7ZM7.75366 0C3.88767 0 0.753662 3.13401 0.753662 7C0.753662 10.866 3.88767 14 7.75366 14C9.41649 14 10.9439 13.4202 12.1448 12.4518L17.4733 17.7803C17.7662 18.0732 18.2411 18.0732 18.534 17.7803C18.8269 17.4874 18.8269 17.0126 18.534 16.7197L13.2054 11.3911C14.1739 10.1902 14.7537 8.66283 14.7537 7C14.7537 3.13401 11.6197 0 7.75366 0Z" fill="white"/>
</svg>
