<svg width="27" height="24" viewBox="0 0 27 24" fill="none" xmlns="http://www.w3.org/2000/svg">
<path d="M5.66422 10C5.66422 6.96243 8.12665 4.5 11.1642 4.5C14.2018 4.5 16.6642 6.96243 16.6642 10C16.6642 13.0376 14.2018 15.5 11.1642 15.5C8.12665 15.5 5.66422 13.0376 5.66422 10ZM11.1642 3C7.29822 3 4.16422 6.13401 4.16422 10C4.16422 13.866 7.29822 17 11.1642 17C12.827 17 14.3545 16.4202 15.5553 15.4518L20.8839 20.7803C21.1768 21.0732 21.6517 21.0732 21.9445 20.7803C22.2374 20.4874 22.2374 20.0126 21.9445 19.7197L16.616 14.3911C17.5844 13.1902 18.1642 11.6628 18.1642 10C18.1642 6.13401 15.0302 3 11.1642 3Z" fill="black"/>
</svg>
