<svg width="18" height="16" viewBox="0 0 18 16" fill="none" xmlns="http://www.w3.org/2000/svg">
<path d="M6.20319 -0.00118446L6.25024 -0.00244141L6.29599 -0.0012331C6.31843 6.0509e-05 6.34091 0.00239283 6.36337 0.00579667L6.37945 0.00960279C6.46486 0.0233245 6.54974 0.0538271 6.63063 0.101754L6.6825 0.135294L11.7528 3.70056L16.8199 0.13864C17.2876 -0.190152 17.9213 0.105375 17.9943 0.647715L18.0012 0.752205V11.3847C18.0012 11.5941 17.9138 11.7921 17.7631 11.9329L17.6825 11.9983L12.1825 15.8647C11.9156 16.0523 11.5947 16.0366 11.3547 15.8878L6.24984 12.2966L1.18016 15.8613C0.712448 16.1901 0.0787065 15.8946 0.00576711 15.3523L-0.00115967 15.2478V4.61523C-0.00115967 4.40591 0.0861924 4.20783 0.23696 4.06706L0.317518 4.00167L5.81752 0.135294C5.88152 0.0903015 5.94863 0.057 6.01699 0.0344217L6.13946 0.00641608L6.20319 -0.00118446ZM16.5012 2.19621L12.5012 5.00812V13.8071L16.5012 10.9952V2.19621ZM5.49884 2.19287L1.49884 5.00478V13.8038L5.49884 10.9918V2.19287ZM7.00118 2.19287V10.9918L11.0012 13.8038V5.00478L7.00118 2.19287Z" fill="#8625D2"/>
</svg>
